<svg xmlns="http://www.w3.org/2000/svg" width="256" height="108.98" viewBox="0 0 256 108.98"><path fill="#f47e08" stroke="#000" stroke-miterlimit="10" stroke-width=".72" d="M191.27 80.91h-30.73V20.38L175.9 6.62l15.37 13.76v60.53zm31.2 0h-30.73V20.38h30.73v60.53zm31.2 0h-30.72V20.38l15.36-13.76 15.36 13.76v60.53zM95.46 20.38h65.08v60.53H95.46z"/><path fill="#fff" stroke="#000" stroke-miterlimit="10" d="M100.74 51.81h23.09a2.88 2.88 0 0 1 2.88 2.88v25.98H97.85V54.69a2.88 2.88 0 0 1 2.88-2.88zm31.62 0h23.09a2.88 2.88 0 0 1 2.88 2.88v25.98h-28.86V54.69a2.88 2.88 0 0 1 2.88-2.88z"/><g stroke="#000" stroke-miterlimit="10"><path fill="#fff" stroke-width=".72" d="M103.94 28.77h16.49v14.49h-16.49zm31.63 0h16.49v14.49h-16.49z"/><path fill="#fff" stroke-width=".36" d="M112.19 28.77v14.49"/><path fill="#fff" stroke-width=".72" d="M198.86 28.77h16.49v14.49h-16.49z"/><path fill="#fff" stroke-width=".36" d="M207.11 28.77v14.49"/><path fill="#fff" stroke-width=".72" d="M229.89 53.16h16.49v14.49h-16.49z"/><path fill="#fff" stroke-width=".36" d="M238.13 53.16v14.48m-94.32-38.87v14.49"/><path fill="#fff" stroke-width=".72" d="M167.9 28.77h16.49v14.49H167.9z"/><path fill="#fff" stroke-width=".36" d="M176.14 28.77v14.49"/><path fill="#f47e08" stroke-width=".72" d="M176.14 18.53c4.55 0 8.24 3.69 8.24 8.24v2h-16.49v-2c0-4.55 3.69-8.24 8.24-8.24z"/><path fill="#fff" stroke-width=".72" d="M230.07 28.77h16.49v14.49h-16.49z"/><path fill="#fff" stroke-width=".36" d="M238.31 28.77v14.49"/><path fill="#f47e08" stroke-width=".72" d="M238.31 18.53c4.55 0 8.24 3.69 8.24 8.24v2h-16.49v-2c0-4.55 3.69-8.24 8.24-8.24z"/></g><path stroke="#000" stroke-miterlimit="10" stroke-width=".84" d="M163.19 53.16h12.35v26.43h-12.35zm37.74 0h12.35v26.43h-12.35z"/><g stroke="#000" stroke-miterlimit="10"><path fill="#f47e08" stroke-width=".72" d="M64.73 80.91h30.73V20.38L80.1 6.62 64.73 20.38v60.53zm-31.2 0h30.73V20.38H33.53v60.53zm-31.2 0h30.72V20.38L17.69 6.62 2.33 20.38v60.53z"/><path fill="#fff" stroke-width=".72" d="M57.14 43.26H40.65V28.77h16.49z"/><path fill="none" stroke-width=".36" d="M48.89 28.77v14.49"/><path fill="#fff" stroke-width=".72" d="M26.11 67.64H9.62V53.15h16.49z"/><path fill="none" stroke-width=".36" d="M17.87 53.16v14.48"/><path fill="#fff" stroke-width=".72" d="M88.11 43.26H71.62V28.77h16.49z"/><path fill="none" stroke-width=".36" d="M79.86 28.77v14.49"/><path fill="none" stroke-width=".72" d="M88.11 28.77H71.62v-2a8.241 8.241 0 0 1 16.48 0v2z"/><path fill="#fff" stroke-width=".72" d="M25.93 43.26H9.44V28.77h16.49z"/><path fill="none" stroke-width=".36" d="M17.69 28.77v14.49"/><path fill="none" stroke-width=".72" d="M25.93 28.77H9.45v-2a8.241 8.241 0 0 1 16.48 0v2z"/><path stroke-width=".84" d="M92.8 79.58H80.45V53.15H92.8zm-37.73 0H42.72V53.15h12.35z"/></g><path d="M14.71 92.41l-.65.2c-1.07-2.06-2.71-3.41-4.7-3.41-2.97 0-4.1 2.62-4.1 6.28s1.13 6.28 4.1 6.28c2.22 0 3.98-1.45 4.56-3.39l1.11.38c-.91 2.52-2.77 4.1-5.91 4.1-4.08 0-6.88-3.01-6.88-7.37s2.81-7.37 6.88-7.37c1.53 0 2.6.38 3.41.95l.28-.65h.79l1.11 4zm13.38 8.06c.36.95.75 1.29 1.59 1.39v.69h-5.83v-.69c1.35-.1 1.68-.34 1.33-1.23l-.85-2.2h-5.27l-.85 2.2c-.32.83.16 1.13 1.53 1.23v.69h-4.42v-.69c.91-.1 1.35-.44 1.7-1.33l4.62-12.11h1.82l4.62 12.05zm-8.6-3.19h4.4l-2.22-5.71-2.18 5.71zm22.94 1.01c0 2.73-2.48 4.56-5.73 4.56-1.7 0-3.19-.42-4.28-1.05l-.32.75h-.79l-1.21-4.44.63-.2c1.19 2.38 3.35 3.86 5.85 3.86 1.8 0 3.23-1.05 3.21-2.48 0-1.74-1.8-2.28-4.12-2.91-2.36-.69-4.91-1.47-4.91-4.32 0-2.42 2.28-3.94 5.03-3.94 1.8 0 3.05.42 3.9.95l.28-.65h.79l1.11 4-.61.18c-1.01-2.12-2.81-3.39-5.25-3.39-1.72 0-2.71.87-2.71 2 0 1.51 1.7 1.98 3.86 2.56 2.5.69 5.27 1.45 5.27 4.52zm10.62 4.26h-6.34v-.69c1.45-.1 1.78-.22 1.78-1.57V90.16c0-.36-.22-.61-.61-.61-1.84 0-2.87.67-4.06 2.6l-.59-.26 1.41-3.92h.69c.1.28.3.44.65.44h7.81c.32 0 .52-.14.63-.44h.69l1.43 3.92-.59.26c-1.19-1.94-2.32-2.6-4.08-2.6-.36 0-.61.24-.61.61v10.13c0 1.35.32 1.47 1.78 1.57v.69zm10.38-1.16c2.34 0 4.16-1.31 5.57-3.09l.57.34-1.96 3.9H57.29v-.69c1.45-.1 1.78-.22 1.78-1.57v-9.61c0-1.35-.32-1.49-1.78-1.59v-.67h6.34v.67c-1.45.1-1.78.24-1.78 1.59v10.11c0 .38.24.61.61.61h.97zm13.49 0c2.81 0 4.62-1.31 6.04-3.09l.57.34-1.96 3.9H70.18v-.69c1.45-.1 1.78-.22 1.78-1.57v-9.61c0-1.35-.32-1.49-1.78-1.59v-.67h11.37l1.25 3.47-.57.28c-1.29-1.78-2.77-2.62-5.33-2.62h-1.55c-.36 0-.61.24-.61.61v4.44h2.83c1.47 0 1.74-.69 1.8-1.84h.75v4.82h-.75c-.06-1.15-.32-1.84-1.8-1.84h-2.83v5.05c0 .38.24.61.61.61h1.58zm7.21 1.16v-.69c1.45-.1 1.78-.22 1.78-1.57v-9.61c0-1.35-.32-1.49-1.78-1.59v-.67h6.6c3.75 0 6.16.79 6.16 3.55 0 1.66-1.09 2.64-2.99 3.07 2.18.44 3.39 1.74 3.39 3.49 0 2.77-2.4 4.02-6.2 4.02h-6.96zm5.17-13c-.36 0-.61.24-.61.61v4.3h2.14c1.84 0 3.03-.61 3.03-2.48s-1.11-2.42-3.01-2.42H89.3zm-.61 6.06v5.19c0 .38.24.61.61.61h1.8c2.1 0 3.17-1.01 3.17-2.87s-1.15-2.93-3.03-2.93H88.7zm22.31 5.04c.52.77 1.01 1.11 2.12 1.21v.69h-3.98l-4.54-6.74h-1.47v4.48c0 1.35.32 1.47 1.78 1.57v.69h-6.34v-.69c1.45-.1 1.78-.22 1.78-1.57v-9.61c0-1.35-.24-1.49-1.78-1.59v-.67h6.98c3.78 0 6.18.89 6.18 3.65 0 2.26-1.68 3.33-4.16 3.57l3.43 5.01zm-7.27-11.1c-.36 0-.61.24-.61.61v4.5h2.38c2.04 0 3.19-.71 3.19-2.58s-1.15-2.52-3.15-2.52h-1.82zm24.01 5.93c0 4.36-2.66 7.37-7.03 7.37s-7.02-3.01-7.02-7.37 2.64-7.37 7.02-7.37 7.03 3.01 7.03 7.37zm-3.03 0c0-3.65-.99-6.28-4-6.28s-4 2.62-4 6.28.97 6.28 4 6.28 4-2.64 4-6.28zm18.59 0c0 4.36-2.66 7.37-7.03 7.37s-7.02-3.01-7.02-7.37 2.64-7.37 7.02-7.37 7.03 3.01 7.03 7.37zm-3.03 0c0-3.65-.99-6.28-4-6.28s-4 2.62-4 6.28.97 6.28 4 6.28 4-2.64 4-6.28zm4.29 7.07v-.69c1.45-.1 1.78-.22 1.78-1.57v-9.61c0-1.35-.32-1.49-1.78-1.59v-.67h6.34v.67c-1.45.1-1.78.24-1.78 1.59v4.52l4.93-4.5c.67-.61.91-1.49-.99-1.61v-.67h5.51v.67c-1.07.1-1.49.36-2.73 1.47l-3.45 3.17 5.19 6.94c.69.93 1.45 1.17 1.9 1.19v.69h-6.38v-.69c1.31-.1 1.68-.48.91-1.51l-3.63-4.76-1.25 1.15v3.55c0 1.35.32 1.47 1.78 1.57v.69h-6.34zm25.6 0l-4.62-12.07c-.34-.95-.75-1.29-1.59-1.39v-.67h5.83v.67c-1.35.1-1.68.36-1.33 1.25l3.51 9.06 3.45-9.06c.32-.83-.16-1.15-1.53-1.25v-.67h4.42v.67c-.91.1-1.35.44-1.7 1.33l-4.62 12.13h-1.82zm8.44 0v-.69c1.45-.1 1.78-.22 1.78-1.57v-9.61c0-1.35-.32-1.49-1.78-1.59v-.67h6.34v.67c-1.45.1-1.78.24-1.78 1.59v9.61c0 1.35.32 1.47 1.78 1.57v.69h-6.34zm13.49-1.16c2.34 0 4.16-1.31 5.57-3.09l.57.34-1.96 3.9h-10.32v-.69c1.45-.1 1.78-.22 1.78-1.57v-9.61c0-1.35-.32-1.49-1.78-1.59v-.67h6.34v.67c-1.45.1-1.78.24-1.78 1.59v10.11c0 .38.24.61.61.61h.97zm12.88 0c2.34 0 4.16-1.31 5.57-3.09l.57.34-1.96 3.9h-10.32v-.69c1.45-.1 1.78-.22 1.78-1.57v-9.61c0-1.35-.32-1.49-1.78-1.59v-.67h6.34v.67c-1.45.1-1.78.24-1.78 1.59v10.11c0 .38.24.61.61.61h.97zm18.6-.92c.36.95.75 1.29 1.59 1.39v.69h-5.83v-.69c1.35-.1 1.68-.34 1.33-1.23l-.85-2.2h-5.27l-.85 2.2c-.32.83.16 1.13 1.53 1.23v.69h-4.42v-.69c.91-.1 1.35-.44 1.7-1.33l4.62-12.11h1.82l4.62 12.05zm-8.6-3.19h4.4l-2.22-5.71-2.18 5.71zm21.2 4.13c-.85.81-2.22 1.43-4 1.43-4.1 0-6.9-3.01-6.9-7.37s2.81-7.37 6.9-7.37c1.58 0 2.71.38 3.49.95l.28-.65h.79l1.11 4-.65.2c-1.11-2.18-2.75-3.41-4.74-3.41-3.03 0-4.16 2.62-4.16 6.28s1.15 6.28 3.96 6.28c1.43 0 2.5-.69 2.85-1.15v-2.34c0-1.35-.3-1.49-1.76-1.59V96h6.18v.67c-1.29.1-1.64.24-1.64 1.59v4.28h-.89l-.83-1.13zm10.8-.02c2.81 0 4.62-1.31 6.04-3.09l.57.34-1.96 3.9h-11.39v-.69c1.45-.1 1.78-.22 1.78-1.57v-9.61c0-1.35-.32-1.49-1.78-1.59v-.67h11.37l1.25 3.47-.57.28c-1.29-1.78-2.77-2.62-5.33-2.62h-1.55c-.36 0-.61.24-.61.61v4.44h2.83c1.47 0 1.74-.69 1.8-1.84h.75v4.82h-.75c-.06-1.15-.32-1.84-1.8-1.84h-2.83v5.05c0 .38.24.61.61.61h1.58z"/></svg>