<svg xmlns="http://www.w3.org/2000/svg" width="32" height="32" viewBox="0 0 32 32"><path fill="#f47e08" stroke="#000" stroke-miterlimit="10" stroke-width=".24" d="M31.59 30.35h-10v-19.7l5-4.48 5 4.48v19.7zM.41 10.65h21.18v19.7H.41z"/><path fill="#fff" stroke="#000" stroke-miterlimit="10" stroke-width=".24" d="M2.13 20.88h7.52c.52 0 .94.42.94.94v8.46h-9.4v-8.46c0-.52.42-.94.94-.94zm10.29 0h7.52c.52 0 .94.42.94.94v8.46h-9.4v-8.46c0-.52.42-.94.94-.94zm-9.25-7.5h5.37v4.72H3.17zm10.3 0h5.37v4.72h-5.37z"/><path fill="#f47e08" stroke="#000" stroke-miterlimit="10" stroke-width=".12" d="M5.85 13.38v4.71m10.3-4.71v4.71"/><path fill="#fff" stroke="#000" stroke-miterlimit="10" stroke-width=".24" d="M23.99 13.38h5.37v4.72h-5.37z"/><path fill="#f47e08" stroke="#000" stroke-miterlimit="10" stroke-width=".12" d="M26.67 13.38v4.71"/><path fill="#f47e08" stroke="#000" stroke-miterlimit="10" stroke-width=".24" d="M26.67 10.05c1.48 0 2.68 1.2 2.68 2.68v.65h-5.37v-.65c0-1.48 1.2-2.68 2.68-2.68z"/><path stroke="#000" stroke-miterlimit="10" stroke-width=".27" d="M22.46 21.32h4.02v8.6h-4.02z"/></svg>