<svg xmlns="http://www.w3.org/2000/svg" width="16" height="16" viewBox="0 0 16 16"><path fill="#f47e08" stroke="#000" stroke-miterlimit="10" stroke-width=".12" d="M15.73 15.12h-4.96V5.35l2.48-2.22 2.48 2.22v9.77zM.27 5.35h10.5v9.77H.27z"/><path fill="#fff" stroke="#000" stroke-miterlimit="10" stroke-width=".12" d="M1.12 10.42h3.73c.26 0 .46.21.46.46v4.19H.65v-4.19c0-.26.21-.46.46-.46zm5.1 0h3.73c.26 0 .46.21.46.46v4.19H5.76v-4.19c0-.26.21-.46.46-.46zM1.64 6.7H4.3v2.34H1.64zm5.1 0H9.4v2.34H6.74z"/><path fill="#f47e08" stroke="#000" stroke-miterlimit="10" stroke-width=".06" d="M2.97 6.7v2.34m5.1-2.34v2.34"/><path fill="#fff" stroke="#000" stroke-miterlimit="10" stroke-width=".12" d="M11.96 6.7h2.66v2.34h-2.66z"/><path fill="#f47e08" stroke="#000" stroke-miterlimit="10" stroke-width=".06" d="M13.29 6.7v2.34"/><path fill="#f47e08" stroke="#000" stroke-miterlimit="10" stroke-width=".12" d="M13.29 5.05c.73 0 1.33.6 1.33 1.33v.32h-2.66v-.32c0-.73.6-1.33 1.33-1.33z"/><path stroke="#000" stroke-miterlimit="10" stroke-width=".14" d="M11.2 10.64h1.99v4.27H11.2z"/></svg>