<?xml version="1.0" encoding="UTF-8"?><svg id="a" xmlns="http://www.w3.org/2000/svg" width="32" height="32" viewBox="0 0 32 32"><polygon points="31.59 30.35 21.59 30.35 21.59 10.65 26.59 6.17 31.59 10.65 31.59 30.35" fill="#f47e08" stroke="#000" stroke-miterlimit="10" stroke-width=".24"/><rect x=".41" y="10.65" width="21.18" height="19.7" fill="#f47e08" stroke="#000" stroke-miterlimit="10" stroke-width=".24"/><path d="M2.13,20.88h7.52c.52,0,.94,.42,.94,.94v8.46H1.19v-8.46c0-.52,.42-.94,.94-.94Z" fill="#fff" stroke="#000" stroke-miterlimit="10" stroke-width=".24"/><path d="M12.42,20.88h7.52c.52,0,.94,.42,.94,.94v8.46H11.48v-8.46c0-.52,.42-.94,.94-.94Z" fill="#fff" stroke="#000" stroke-miterlimit="10" stroke-width=".24"/><rect x="3.17" y="13.38" width="5.37" height="4.72" fill="#fff" stroke="#000" stroke-miterlimit="10" stroke-width=".24"/><rect x="13.47" y="13.38" width="5.37" height="4.72" fill="#fff" stroke="#000" stroke-miterlimit="10" stroke-width=".24"/><line x1="5.85" y1="13.38" x2="5.85" y2="18.09" fill="#f47e08" stroke="#000" stroke-miterlimit="10" stroke-width=".12"/><line x1="16.15" y1="13.38" x2="16.15" y2="18.09" fill="#f47e08" stroke="#000" stroke-miterlimit="10" stroke-width=".12"/><rect x="23.99" y="13.38" width="5.37" height="4.72" fill="#fff" stroke="#000" stroke-miterlimit="10" stroke-width=".24"/><line x1="26.67" y1="13.38" x2="26.67" y2="18.09" fill="#f47e08" stroke="#000" stroke-miterlimit="10" stroke-width=".12"/><path d="M26.67,10.05h0c1.48,0,2.68,1.2,2.68,2.68v.65h-5.37v-.65c0-1.48,1.2-2.68,2.68-2.68Z" fill="#f47e08" stroke="#000" stroke-miterlimit="10" stroke-width=".24"/><rect x="22.46" y="21.32" width="4.02" height="8.6" stroke="#000" stroke-miterlimit="10" stroke-width=".27"/></svg>