<?xml version="1.0" encoding="UTF-8"?><svg id="a" xmlns="http://www.w3.org/2000/svg" width="256" height="108.98" viewBox="0 0 256 108.98"><polygon points="191.27 80.91 160.54 80.91 160.54 20.38 175.9 6.62 191.27 20.38 191.27 80.91" fill="#f47e08" stroke="#000" stroke-miterlimit="10" stroke-width=".72"/><polygon points="222.47 80.91 191.74 80.91 191.74 20.38 207.11 20.38 222.47 20.38 222.47 80.91" fill="#f47e08" stroke="#000" stroke-miterlimit="10" stroke-width=".72"/><polygon points="253.67 80.91 222.95 80.91 222.95 20.38 238.31 6.62 253.67 20.38 253.67 80.91" fill="#f47e08" stroke="#000" stroke-miterlimit="10" stroke-width=".72"/><rect x="95.46" y="20.38" width="65.08" height="60.53" fill="#f47e08" stroke="#000" stroke-miterlimit="10" stroke-width=".72"/><path d="M100.74,51.81h23.09c1.59,0,2.88,1.29,2.88,2.88v25.98h-28.86v-25.98c0-1.59,1.29-2.88,2.88-2.88Z" fill="#fff" stroke="#000" stroke-miterlimit="10"/><path d="M132.36,51.81h23.09c1.59,0,2.88,1.29,2.88,2.88v25.98h-28.86v-25.98c0-1.59,1.29-2.88,2.88-2.88Z" fill="#fff" stroke="#000" stroke-miterlimit="10"/><g><rect x="103.94" y="28.77" width="16.49" height="14.49" fill="#fff" stroke="#000" stroke-miterlimit="10" stroke-width=".72"/><rect x="135.57" y="28.77" width="16.49" height="14.49" fill="#fff" stroke="#000" stroke-miterlimit="10" stroke-width=".72"/><line x1="112.19" y1="28.77" x2="112.19" y2="43.26" fill="#fff" stroke="#000" stroke-miterlimit="10" stroke-width=".36"/><rect x="198.86" y="28.77" width="16.49" height="14.49" fill="#fff" stroke="#000" stroke-miterlimit="10" stroke-width=".72"/><line x1="207.11" y1="28.77" x2="207.11" y2="43.26" fill="#fff" stroke="#000" stroke-miterlimit="10" stroke-width=".36"/><rect x="229.89" y="53.16" width="16.49" height="14.49" fill="#fff" stroke="#000" stroke-miterlimit="10" stroke-width=".72"/><line x1="238.13" y1="53.16" x2="238.13" y2="67.64" fill="#fff" stroke="#000" stroke-miterlimit="10" stroke-width=".36"/><line x1="143.81" y1="28.77" x2="143.81" y2="43.26" fill="#fff" stroke="#000" stroke-miterlimit="10" stroke-width=".36"/><rect x="167.9" y="28.77" width="16.49" height="14.49" fill="#fff" stroke="#000" stroke-miterlimit="10" stroke-width=".72"/><line x1="176.14" y1="28.77" x2="176.14" y2="43.26" fill="#fff" stroke="#000" stroke-miterlimit="10" stroke-width=".36"/><path d="M176.14,18.53h0c4.55,0,8.24,3.69,8.24,8.24v2h-16.49v-2c0-4.55,3.69-8.24,8.24-8.24Z" fill="#f47e08" stroke="#000" stroke-miterlimit="10" stroke-width=".72"/><rect x="230.07" y="28.77" width="16.49" height="14.49" fill="#fff" stroke="#000" stroke-miterlimit="10" stroke-width=".72"/><line x1="238.31" y1="28.77" x2="238.31" y2="43.26" fill="#fff" stroke="#000" stroke-miterlimit="10" stroke-width=".36"/><path d="M238.31,18.53h0c4.55,0,8.24,3.69,8.24,8.24v2h-16.49v-2c0-4.55,3.69-8.24,8.24-8.24Z" fill="#f47e08" stroke="#000" stroke-miterlimit="10" stroke-width=".72"/></g><rect x="163.19" y="53.16" width="12.35" height="26.43" stroke="#000" stroke-miterlimit="10" stroke-width=".84"/><rect x="200.93" y="53.16" width="12.35" height="26.43" stroke="#000" stroke-miterlimit="10" stroke-width=".84"/><g><polygon points="64.73 80.91 95.46 80.91 95.46 20.38 80.1 6.62 64.73 20.38 64.73 80.91" fill="#f47e08" stroke="#000" stroke-miterlimit="10" stroke-width=".72"/><polygon points="33.53 80.91 64.26 80.91 64.26 20.38 48.89 20.38 33.53 20.38 33.53 80.91" fill="#f47e08" stroke="#000" stroke-miterlimit="10" stroke-width=".72"/><polygon points="2.33 80.91 33.05 80.91 33.05 20.38 17.69 6.62 2.33 20.38 2.33 80.91" fill="#f47e08" stroke="#000" stroke-miterlimit="10" stroke-width=".72"/><rect x="40.65" y="28.77" width="16.49" height="14.49" transform="translate(97.79 72.03) rotate(-180)" fill="#fff" stroke="#000" stroke-miterlimit="10" stroke-width=".72"/><line x1="48.89" y1="28.77" x2="48.89" y2="43.26" fill="none" stroke="#000" stroke-miterlimit="10" stroke-width=".36"/><rect x="9.63" y="53.16" width="16.49" height="14.49" transform="translate(35.74 120.8) rotate(-180)" fill="#fff" stroke="#000" stroke-miterlimit="10" stroke-width=".72"/><line x1="17.87" y1="53.16" x2="17.87" y2="67.64" fill="none" stroke="#000" stroke-miterlimit="10" stroke-width=".36"/><rect x="71.61" y="28.77" width="16.49" height="14.49" transform="translate(159.72 72.03) rotate(-180)" fill="#fff" stroke="#000" stroke-miterlimit="10" stroke-width=".72"/><line x1="79.86" y1="28.77" x2="79.86" y2="43.26" fill="none" stroke="#000" stroke-miterlimit="10" stroke-width=".36"/><path d="M71.61,18.53h16.49v2c0,4.55-3.69,8.24-8.24,8.24h0c-4.55,0-8.24-3.69-8.24-8.24v-2h0Z" transform="translate(159.72 47.3) rotate(180)" fill="none" stroke="#000" stroke-miterlimit="10" stroke-width=".72"/><rect x="9.45" y="28.77" width="16.49" height="14.49" transform="translate(35.38 72.03) rotate(-180)" fill="#fff" stroke="#000" stroke-miterlimit="10" stroke-width=".72"/><line x1="17.69" y1="28.77" x2="17.69" y2="43.26" fill="none" stroke="#000" stroke-miterlimit="10" stroke-width=".36"/><path d="M9.45,18.53H25.93v2c0,4.55-3.69,8.24-8.24,8.24h0c-4.55,0-8.24-3.69-8.24-8.24v-2h0Z" transform="translate(35.38 47.3) rotate(-180)" fill="none" stroke="#000" stroke-miterlimit="10" stroke-width=".72"/><rect x="80.46" y="53.16" width="12.35" height="26.43" transform="translate(173.26 132.74) rotate(-180)" stroke="#000" stroke-miterlimit="10" stroke-width=".84"/><rect x="42.72" y="53.16" width="12.35" height="26.43" transform="translate(97.79 132.74) rotate(-180)" stroke="#000" stroke-miterlimit="10" stroke-width=".84"/></g><g><path d="M14.71,92.41l-.65,.2c-1.07-2.06-2.71-3.41-4.7-3.41-2.97,0-4.1,2.62-4.1,6.28s1.13,6.28,4.1,6.28c2.22,0,3.98-1.45,4.56-3.39l1.11,.38c-.91,2.52-2.77,4.1-5.91,4.1-4.08,0-6.88-3.01-6.88-7.37s2.81-7.37,6.88-7.37c1.53,0,2.6,.38,3.41,.95l.28-.65h.79l1.11,4Z"/><path d="M28.09,100.47c.36,.95,.75,1.29,1.59,1.39v.69h-5.83v-.69c1.35-.1,1.68-.34,1.33-1.23l-.85-2.2h-5.27l-.85,2.2c-.32,.83,.16,1.13,1.53,1.23v.69h-4.42v-.69c.91-.1,1.35-.44,1.7-1.33l4.62-12.11h1.82l4.62,12.05Zm-8.6-3.19h4.4l-2.22-5.71-2.18,5.71Z"/><path d="M42.43,98.29c0,2.73-2.48,4.56-5.73,4.56-1.7,0-3.19-.42-4.28-1.05l-.32,.75h-.79l-1.21-4.44,.63-.2c1.19,2.38,3.35,3.86,5.85,3.86,1.8,0,3.23-1.05,3.21-2.48,0-1.74-1.8-2.28-4.12-2.91-2.36-.69-4.91-1.47-4.91-4.32,0-2.42,2.28-3.94,5.03-3.94,1.8,0,3.05,.42,3.9,.95l.28-.65h.79l1.11,4-.61,.18c-1.01-2.12-2.81-3.39-5.25-3.39-1.72,0-2.71,.87-2.71,2,0,1.51,1.7,1.98,3.86,2.56,2.5,.69,5.27,1.45,5.27,4.52Z"/><path d="M53.05,102.55h-6.34v-.69c1.45-.1,1.78-.22,1.78-1.57v-10.13c0-.36-.22-.61-.61-.61-1.84,0-2.87,.67-4.06,2.6l-.59-.26,1.41-3.92h.69c.1,.28,.3,.44,.65,.44h7.81c.32,0,.52-.14,.63-.44h.69l1.43,3.92-.59,.26c-1.19-1.94-2.32-2.6-4.08-2.6-.36,0-.61,.24-.61,.61v10.13c0,1.35,.32,1.47,1.78,1.57v.69Z"/><path d="M63.43,101.39c2.34,0,4.16-1.31,5.57-3.09l.57,.34-1.96,3.9h-10.32v-.69c1.45-.1,1.78-.22,1.78-1.57v-9.61c0-1.35-.32-1.49-1.78-1.59v-.67h6.34v.67c-1.45,.1-1.78,.24-1.78,1.59v10.11c0,.38,.24,.61,.61,.61h.97Z"/><path d="M76.92,101.39c2.81,0,4.62-1.31,6.04-3.09l.57,.34-1.96,3.9h-11.39v-.69c1.45-.1,1.78-.22,1.78-1.57v-9.61c0-1.35-.32-1.49-1.78-1.59v-.67h11.37l1.25,3.47-.57,.28c-1.29-1.78-2.77-2.62-5.33-2.62h-1.55c-.36,0-.61,.24-.61,.61v4.44h2.83c1.47,0,1.74-.69,1.8-1.84h.75v4.82h-.75c-.06-1.15-.32-1.84-1.8-1.84h-2.83v5.05c0,.38,.24,.61,.61,.61h1.58Z"/><path d="M84.13,102.55v-.69c1.45-.1,1.78-.22,1.78-1.57v-9.61c0-1.35-.32-1.49-1.78-1.59v-.67h6.6c3.75,0,6.16,.79,6.16,3.55,0,1.66-1.09,2.64-2.99,3.07,2.18,.44,3.39,1.74,3.39,3.49,0,2.77-2.4,4.02-6.2,4.02h-6.96Zm5.17-13c-.36,0-.61,.24-.61,.61v4.3h2.14c1.84,0,3.03-.61,3.03-2.48s-1.11-2.42-3.01-2.42h-1.55Zm-.61,6.06v5.19c0,.38,.24,.61,.61,.61h1.8c2.1,0,3.17-1.01,3.17-2.87s-1.15-2.93-3.03-2.93h-2.54Z"/><path d="M111,100.65c.52,.77,1.01,1.11,2.12,1.21v.69h-3.98l-4.54-6.74h-1.47v4.48c0,1.35,.32,1.47,1.78,1.57v.69h-6.34v-.69c1.45-.1,1.78-.22,1.78-1.57v-9.61c0-1.35-.24-1.49-1.78-1.59v-.67h6.98c3.78,0,6.18,.89,6.18,3.65,0,2.26-1.68,3.33-4.16,3.57l3.43,5.01Zm-7.27-11.1c-.36,0-.61,.24-.61,.61v4.5h2.38c2.04,0,3.19-.71,3.19-2.58s-1.15-2.52-3.15-2.52h-1.82Z"/><path d="M127.74,95.48c0,4.36-2.66,7.37-7.03,7.37s-7.02-3.01-7.02-7.37,2.64-7.37,7.02-7.37,7.03,3.01,7.03,7.37Zm-3.03,0c0-3.65-.99-6.28-4-6.28s-4,2.62-4,6.28,.97,6.28,4,6.28,4-2.64,4-6.28Z"/><path d="M143.3,95.48c0,4.36-2.66,7.37-7.03,7.37s-7.02-3.01-7.02-7.37,2.64-7.37,7.02-7.37,7.03,3.01,7.03,7.37Zm-3.03,0c0-3.65-.99-6.28-4-6.28s-4,2.62-4,6.28,.97,6.28,4,6.28,4-2.64,4-6.28Z"/><path d="M144.56,102.55v-.69c1.45-.1,1.78-.22,1.78-1.57v-9.61c0-1.35-.32-1.49-1.78-1.59v-.67h6.34v.67c-1.45,.1-1.78,.24-1.78,1.59v4.52l4.93-4.5c.67-.61,.91-1.49-.99-1.61v-.67h5.51v.67c-1.07,.1-1.49,.36-2.73,1.47l-3.45,3.17,5.19,6.94c.69,.93,1.45,1.17,1.9,1.19v.69h-6.38v-.69c1.31-.1,1.68-.48,.91-1.51l-3.63-4.76-1.25,1.15v3.55c0,1.35,.32,1.47,1.78,1.57v.69h-6.34Z"/><path d="M170.16,102.55l-4.62-12.07c-.34-.95-.75-1.29-1.59-1.39v-.67h5.83v.67c-1.35,.1-1.68,.36-1.33,1.25l3.51,9.06,3.45-9.06c.32-.83-.16-1.15-1.53-1.25v-.67h4.42v.67c-.91,.1-1.35,.44-1.7,1.33l-4.62,12.13h-1.82Z"/><path d="M178.6,102.55v-.69c1.45-.1,1.78-.22,1.78-1.57v-9.61c0-1.35-.32-1.49-1.78-1.59v-.67h6.34v.67c-1.45,.1-1.78,.24-1.78,1.59v9.61c0,1.35,.32,1.47,1.78,1.57v.69h-6.34Z"/><path d="M192.09,101.39c2.34,0,4.16-1.31,5.57-3.09l.57,.34-1.96,3.9h-10.32v-.69c1.45-.1,1.78-.22,1.78-1.57v-9.61c0-1.35-.32-1.49-1.78-1.59v-.67h6.34v.67c-1.45,.1-1.78,.24-1.78,1.59v10.11c0,.38,.24,.61,.61,.61h.97Z"/><path d="M204.97,101.39c2.34,0,4.16-1.31,5.57-3.09l.57,.34-1.96,3.9h-10.32v-.69c1.45-.1,1.78-.22,1.78-1.57v-9.61c0-1.35-.32-1.49-1.78-1.59v-.67h6.34v.67c-1.45,.1-1.78,.24-1.78,1.59v10.11c0,.38,.24,.61,.61,.61h.97Z"/><path d="M223.57,100.47c.36,.95,.75,1.29,1.59,1.39v.69h-5.83v-.69c1.35-.1,1.68-.34,1.33-1.23l-.85-2.2h-5.27l-.85,2.2c-.32,.83,.16,1.13,1.53,1.23v.69h-4.42v-.69c.91-.1,1.35-.44,1.7-1.33l4.62-12.11h1.82l4.62,12.05Zm-8.6-3.19h4.4l-2.22-5.71-2.18,5.71Z"/><path d="M236.17,101.41c-.85,.81-2.22,1.43-4,1.43-4.1,0-6.9-3.01-6.9-7.37s2.81-7.37,6.9-7.37c1.58,0,2.71,.38,3.49,.95l.28-.65h.79l1.11,4-.65,.2c-1.11-2.18-2.75-3.41-4.74-3.41-3.03,0-4.16,2.62-4.16,6.28s1.15,6.28,3.96,6.28c1.43,0,2.5-.69,2.85-1.15v-2.34c0-1.35-.3-1.49-1.76-1.59v-.67h6.18v.67c-1.29,.1-1.64,.24-1.64,1.59v4.28h-.89l-.83-1.13Z"/><path d="M246.97,101.39c2.81,0,4.62-1.31,6.04-3.09l.57,.34-1.96,3.9h-11.39v-.69c1.45-.1,1.78-.22,1.78-1.57v-9.61c0-1.35-.32-1.49-1.78-1.59v-.67h11.37l1.25,3.47-.57,.28c-1.29-1.78-2.77-2.62-5.33-2.62h-1.55c-.36,0-.61,.24-.61,.61v4.44h2.83c1.47,0,1.74-.69,1.8-1.84h.75v4.82h-.75c-.06-1.15-.32-1.84-1.8-1.84h-2.83v5.05c0,.38,.24,.61,.61,.61h1.58Z"/></g></svg>