<?xml version="1.0" encoding="UTF-8"?><svg id="a" xmlns="http://www.w3.org/2000/svg" width="64" height="64" viewBox="0 0 64 64"><g><polygon points="63.21 60.73 43.19 60.73 43.19 21.3 53.2 12.33 63.21 21.3 63.21 60.73" fill="#f47e08" stroke="#000" stroke-miterlimit="10" stroke-width=".47"/><rect x=".79" y="21.3" width="42.4" height="39.43" fill="#f47e08" stroke="#000" stroke-miterlimit="10" stroke-width=".47"/><path d="M4.23,41.77h15.05c1.04,0,1.88,.84,1.88,1.88v16.93H2.35v-16.93c0-1.04,.84-1.88,1.88-1.88Z" fill="#fff" stroke="#000" stroke-miterlimit="10" stroke-width=".47"/><path d="M24.83,41.77h15.05c1.04,0,1.88,.84,1.88,1.88v16.93H22.96v-16.93c0-1.04,.84-1.88,1.88-1.88Z" fill="#fff" stroke="#000" stroke-miterlimit="10" stroke-width=".47"/><rect x="6.32" y="26.76" width="10.74" height="9.44" fill="#fff" stroke="#000" stroke-miterlimit="10" stroke-width=".47"/><rect x="26.92" y="26.76" width="10.74" height="9.44" fill="#fff" stroke="#000" stroke-miterlimit="10" stroke-width=".47"/><line x1="11.69" y1="26.76" x2="11.69" y2="36.2" fill="#f47e08" stroke="#000" stroke-miterlimit="10" stroke-width=".24"/><line x1="32.29" y1="26.76" x2="32.29" y2="36.2" fill="#f47e08" stroke="#000" stroke-miterlimit="10" stroke-width=".24"/><rect x="47.98" y="26.76" width="10.74" height="9.44" fill="#fff" stroke="#000" stroke-miterlimit="10" stroke-width=".47"/><line x1="53.35" y1="26.76" x2="53.35" y2="36.2" fill="#f47e08" stroke="#000" stroke-miterlimit="10" stroke-width=".24"/><path d="M53.35,20.09h0c2.96,0,5.37,2.41,5.37,5.37v1.3h-10.74v-1.3c0-2.96,2.41-5.37,5.37-5.37Z" fill="#f47e08" stroke="#000" stroke-miterlimit="10" stroke-width=".47"/><rect x="44.92" y="42.65" width="8.04" height="17.22" stroke="#000" stroke-miterlimit="10" stroke-width=".55"/></g><g><path d="M5.75,4.8l-.26,.08c-.42-.82-1.07-1.35-1.87-1.35-1.18,0-1.63,1.04-1.63,2.49s.45,2.49,1.63,2.49c.88,0,1.58-.58,1.81-1.35l.44,.15c-.36,1-1.1,1.63-2.35,1.63-1.62,0-2.73-1.19-2.73-2.92S1.91,3.09,3.53,3.09c.61,0,1.03,.15,1.35,.38l.11-.26h.31l.44,1.59Z"/><path d="M11.06,8c.14,.38,.3,.51,.63,.55v.27h-2.32v-.27c.54-.04,.67-.14,.53-.49l-.34-.87h-2.09l-.34,.87c-.13,.33,.06,.45,.61,.49v.27h-1.75v-.27c.36-.04,.54-.18,.67-.53l1.83-4.81h.72l1.83,4.78Zm-3.41-1.27h1.75l-.88-2.27-.87,2.27Z"/><path d="M16.75,7.13c0,1.08-.99,1.81-2.28,1.81-.67,0-1.27-.17-1.7-.42l-.13,.3h-.31l-.48-1.76,.25-.08c.47,.95,1.33,1.53,2.32,1.53,.71,0,1.28-.42,1.27-.99,0-.69-.71-.91-1.63-1.15-.94-.27-1.95-.58-1.95-1.71,0-.96,.91-1.56,1.99-1.56,.71,0,1.21,.17,1.55,.38l.11-.26h.31l.44,1.59-.24,.07c-.4-.84-1.11-1.35-2.08-1.35-.68,0-1.07,.34-1.07,.79,0,.6,.67,.79,1.53,1.02,.99,.27,2.09,.58,2.09,1.79Z"/><path d="M20.96,8.82h-2.52v-.27c.58-.04,.71-.09,.71-.62V3.9c0-.14-.09-.24-.24-.24-.73,0-1.14,.26-1.61,1.03l-.23-.1,.56-1.55h.27c.04,.11,.12,.18,.26,.18h3.1c.13,0,.21-.06,.25-.18h.27l.57,1.55-.23,.1c-.47-.77-.92-1.03-1.62-1.03-.14,0-.24,.1-.24,.24V7.92c0,.54,.13,.58,.71,.62v.27Z"/><path d="M25.08,8.36c.93,0,1.65-.52,2.21-1.23l.22,.14-.78,1.55h-4.09v-.27c.58-.04,.71-.09,.71-.62v-3.81c0-.54-.13-.59-.71-.63v-.26h2.52v.26c-.58,.04-.71,.1-.71,.63v4.01c0,.15,.1,.24,.24,.24h.38Z"/><path d="M30.44,8.36c1.11,0,1.83-.52,2.4-1.23l.22,.14-.78,1.55h-4.52v-.27c.58-.04,.71-.09,.71-.62v-3.81c0-.54-.13-.59-.71-.63v-.26h4.51l.5,1.38-.22,.11c-.51-.71-1.1-1.04-2.12-1.04h-.62c-.14,0-.24,.1-.24,.24v1.76h1.12c.58,0,.69-.27,.71-.73h.3v1.91h-.3c-.02-.46-.13-.73-.71-.73h-1.12v2c0,.15,.1,.24,.24,.24h.63Z"/><path d="M33.3,8.82v-.27c.58-.04,.71-.09,.71-.62v-3.81c0-.54-.13-.59-.71-.63v-.26h2.62c1.49,0,2.44,.31,2.44,1.41,0,.66-.43,1.05-1.19,1.22,.87,.18,1.35,.69,1.35,1.39,0,1.1-.95,1.59-2.46,1.59h-2.76Zm2.05-5.16c-.14,0-.24,.1-.24,.24v1.71h.85c.73,0,1.2-.24,1.2-.99s-.44-.96-1.19-.96h-.62Zm-.24,2.4v2.06c0,.15,.1,.24,.24,.24h.71c.83,0,1.26-.4,1.26-1.14s-.46-1.16-1.2-1.16h-1.01Z"/><path d="M43.96,8.07c.21,.3,.4,.44,.84,.48v.27h-1.58l-1.8-2.68h-.58v1.78c0,.54,.13,.58,.7,.62v.27h-2.52v-.27c.58-.04,.71-.09,.71-.62v-3.81c0-.54-.1-.59-.71-.63v-.26h2.77c1.5,0,2.45,.35,2.45,1.45,0,.9-.66,1.32-1.65,1.42l1.36,1.99Zm-2.88-4.41c-.14,0-.24,.1-.24,.24v1.79h.95c.81,0,1.27-.28,1.27-1.03s-.46-1-1.25-1h-.72Z"/><path d="M50.61,6.02c0,1.73-1.06,2.92-2.79,2.92s-2.79-1.19-2.79-2.92,1.05-2.92,2.79-2.92,2.79,1.19,2.79,2.92Zm-1.2,0c0-1.45-.39-2.49-1.59-2.49s-1.59,1.04-1.59,2.49,.38,2.49,1.59,2.49,1.59-1.05,1.59-2.49Z"/><path d="M56.79,6.02c0,1.73-1.06,2.92-2.79,2.92s-2.79-1.19-2.79-2.92,1.05-2.92,2.79-2.92,2.79,1.19,2.79,2.92Zm-1.2,0c0-1.45-.39-2.49-1.59-2.49s-1.59,1.04-1.59,2.49,.38,2.49,1.59,2.49,1.59-1.05,1.59-2.49Z"/><path d="M57.29,8.82v-.27c.58-.04,.71-.09,.71-.62v-3.81c0-.54-.13-.59-.71-.63v-.26h2.52v.26c-.58,.04-.7,.1-.7,.63v1.79l1.95-1.79c.26-.24,.36-.59-.39-.64v-.26h2.19v.26c-.42,.04-.59,.14-1.08,.58l-1.37,1.26,2.06,2.76c.27,.37,.58,.46,.75,.47v.27h-2.53v-.27c.52-.04,.66-.19,.36-.6l-1.44-1.89-.5,.46v1.41c0,.54,.13,.58,.7,.62v.27h-2.52Z"/></g><g><path d="M3.66,18.4L1.53,12.83c-.16-.44-.34-.6-.74-.64v-.31H3.48v.31c-.62,.05-.77,.17-.61,.58l1.62,4.18,1.59-4.18c.15-.38-.07-.53-.71-.58v-.31h2.04v.31c-.42,.05-.62,.2-.78,.61l-2.13,5.59h-.84Z"/><path d="M7.55,18.4v-.32c.67-.05,.82-.1,.82-.73v-4.43c0-.62-.15-.69-.82-.73v-.31h2.92v.31c-.67,.05-.82,.11-.82,.73v4.43c0,.62,.15,.68,.82,.73v.32h-2.92Z"/><path d="M13.77,17.87c1.08,0,1.92-.6,2.57-1.42l.26,.16-.9,1.8h-4.75v-.32c.67-.05,.82-.1,.82-.73v-4.43c0-.62-.15-.69-.82-.73v-.31h2.92v.31c-.67,.05-.82,.11-.82,.73v4.66c0,.18,.11,.28,.28,.28h.45Z"/><path d="M19.7,17.87c1.08,0,1.92-.6,2.57-1.42l.26,.16-.9,1.8h-4.75v-.32c.67-.05,.82-.1,.82-.73v-4.43c0-.62-.15-.69-.82-.73v-.31h2.92v.31c-.67,.05-.82,.11-.82,.73v4.66c0,.18,.11,.28,.28,.28h.45Z"/><path d="M28.27,17.44c.17,.44,.34,.6,.74,.64v.32h-2.69v-.32c.62-.05,.77-.16,.61-.57l-.39-1.01h-2.43l-.39,1.01c-.15,.38,.07,.52,.71,.57v.32h-2.04v-.32c.42-.05,.62-.2,.78-.61l2.13-5.58h.84l2.13,5.55Zm-3.96-1.47h2.03l-1.02-2.63-1,2.63Z"/><path d="M34.08,17.88c-.39,.37-1.02,.66-1.84,.66-1.89,0-3.18-1.39-3.18-3.4s1.29-3.4,3.18-3.4c.73,0,1.25,.18,1.61,.44l.13-.3h.36l.51,1.84-.3,.09c-.51-1-1.27-1.57-2.19-1.57-1.4,0-1.92,1.21-1.92,2.89s.53,2.89,1.82,2.89c.66,0,1.15-.32,1.31-.53v-1.08c0-.62-.14-.69-.81-.74v-.31h2.85v.31c-.6,.05-.75,.11-.75,.74v1.97h-.41l-.38-.52Z"/><path d="M39.06,17.87c1.29,0,2.13-.6,2.78-1.42l.26,.16-.9,1.8h-5.25v-.32c.67-.05,.82-.1,.82-.73v-4.43c0-.62-.15-.69-.82-.73v-.31h5.24l.58,1.6-.26,.13c-.6-.82-1.27-1.21-2.46-1.21h-.72c-.17,0-.28,.11-.28,.28v2.05h1.3c.68,0,.8-.32,.83-.85h.34v2.22h-.34c-.03-.53-.15-.85-.83-.85h-1.3v2.33c0,.18,.11,.28,.28,.28h.73Z"/></g></svg>