<?xml version="1.0" encoding="UTF-8"?><svg id="a" xmlns="http://www.w3.org/2000/svg" width="16" height="16" viewBox="0 0 16 16"><polygon points="15.73 15.12 10.77 15.12 10.77 5.35 13.25 3.13 15.73 5.35 15.73 15.12" fill="#f47e08" stroke="#000" stroke-miterlimit="10" stroke-width=".12"/><rect x=".27" y="5.35" width="10.5" height="9.77" fill="#f47e08" stroke="#000" stroke-miterlimit="10" stroke-width=".12"/><path d="M1.12,10.42h3.73c.26,0,.46,.21,.46,.46v4.19H.65v-4.19c0-.26,.21-.46,.46-.46Z" fill="#fff" stroke="#000" stroke-miterlimit="10" stroke-width=".12"/><path d="M6.22,10.42h3.73c.26,0,.46,.21,.46,.46v4.19H5.76v-4.19c0-.26,.21-.46,.46-.46Z" fill="#fff" stroke="#000" stroke-miterlimit="10" stroke-width=".12"/><rect x="1.64" y="6.7" width="2.66" height="2.34" fill="#fff" stroke="#000" stroke-miterlimit="10" stroke-width=".12"/><rect x="6.74" y="6.7" width="2.66" height="2.34" fill="#fff" stroke="#000" stroke-miterlimit="10" stroke-width=".12"/><line x1="2.97" y1="6.7" x2="2.97" y2="9.04" fill="#f47e08" stroke="#000" stroke-miterlimit="10" stroke-width=".06"/><line x1="8.07" y1="6.7" x2="8.07" y2="9.04" fill="#f47e08" stroke="#000" stroke-miterlimit="10" stroke-width=".06"/><rect x="11.96" y="6.7" width="2.66" height="2.34" fill="#fff" stroke="#000" stroke-miterlimit="10" stroke-width=".12"/><line x1="13.29" y1="6.7" x2="13.29" y2="9.04" fill="#f47e08" stroke="#000" stroke-miterlimit="10" stroke-width=".06"/><path d="M13.29,5.05h0c.73,0,1.33,.6,1.33,1.33v.32h-2.66v-.32c0-.73,.6-1.33,1.33-1.33Z" fill="#f47e08" stroke="#000" stroke-miterlimit="10" stroke-width=".12"/><rect x="11.2" y="10.64" width="1.99" height="4.27" stroke="#000" stroke-miterlimit="10" stroke-width=".14"/></svg>